<svg width="109" height="121" viewBox="0 0 109 121" fill="none" xmlns="http://www.w3.org/2000/svg">
<path d="M8.84558 57.1031V105.416C8.84558 108.619 10.1181 111.691 12.3832 113.957C14.6483 116.222 17.7204 117.494 20.9238 117.494H93.393C96.5964 117.494 99.6685 116.222 101.934 113.957C104.199 111.691 105.471 108.619 105.471 105.416V57.1031H8.84558Z" stroke="#E1E8F4" stroke-width="5.08" stroke-linecap="round" stroke-linejoin="round"/>
<path d="M8.84555 57.1032L3.53114 39.771C3.06524 38.2523 2.90351 36.6566 3.05519 35.0754C3.20686 33.4941 3.66898 31.9583 4.41507 30.5558C5.16116 29.1534 6.17656 27.9119 7.40314 26.9025C8.62972 25.8931 10.0434 25.1355 11.5631 24.6732L80.8921 3.53636C83.9513 2.59297 87.2598 2.90267 90.0908 4.39742C92.9218 5.89217 95.0435 8.44968 95.9898 11.508L101.244 28.8402L8.84555 57.1636V57.1032Z" stroke="#E1E8F4" stroke-width="5.08" stroke-linecap="round" stroke-linejoin="round"/>
<path d="M24.5471 20.8082L44.9593 46.1725" stroke="#E1E8F4" stroke-width="5.08" stroke-linecap="round" stroke-linejoin="round"/>
<path d="M56.3129 11.0852L76.725 36.4494" stroke="#E1E8F4" stroke-width="5.08" stroke-linecap="round" stroke-linejoin="round"/>
<path d="M34.1705 69.7273H41.1364L44.6591 84.1364H44.9318L53.2273 69.7273H60.1932L56.3295 93H50.8523L53.2273 78.7045H53.0341L45.1023 92.8523H41.6136L38.3864 78.625H38.1932L35.7841 93H30.3068L34.1705 69.7273Z" fill="white"/>
<path d="M60.3068 109L64.1705 85.7273H73.875C75.6174 85.7273 77.0379 85.9735 78.1364 86.4659C79.2348 86.9583 80.0076 87.6477 80.4545 88.5341C80.9091 89.4205 81.0379 90.447 80.8409 91.6136C80.6818 92.4924 80.3561 93.2803 79.8636 93.9773C79.3788 94.6667 78.7727 95.2424 78.0455 95.7045C77.3182 96.1591 76.5152 96.4773 75.6364 96.6591L75.5909 96.8864C76.5303 96.9242 77.3598 97.1742 78.0795 97.6364C78.8068 98.0985 79.3447 98.7462 79.6932 99.5795C80.0417 100.405 80.1212 101.375 79.9318 102.489C79.7273 103.739 79.2235 104.856 78.4205 105.841C77.625 106.818 76.5758 107.591 75.2727 108.159C73.9697 108.72 72.4621 109 70.75 109H60.3068ZM66.7045 104.466H70.1818C71.3864 104.466 72.3182 104.235 72.9773 103.773C73.6439 103.303 74.0379 102.659 74.1591 101.841C74.2576 101.242 74.2045 100.727 74 100.295C73.7955 99.8561 73.4545 99.5189 72.9773 99.2841C72.5 99.0417 71.8977 98.9205 71.1705 98.9205H67.5909L66.7045 104.466ZM68.2159 95.2955H71.3409C71.947 95.2955 72.5038 95.1932 73.0114 94.9886C73.5265 94.7841 73.9508 94.4886 74.2841 94.1023C74.625 93.7159 74.8371 93.25 74.9205 92.7045C75.0492 91.9242 74.8712 91.3106 74.3864 90.8636C73.9015 90.4167 73.1932 90.1932 72.2614 90.1932H69.0568L68.2159 95.2955Z" fill="white"/>
</svg>
