<svg width="50" height="50" viewBox="0 0 50 50" fill="none" xmlns="http://www.w3.org/2000/svg">
<rect width="50" height="50" rx="5" fill="#050A0A"/>
<path d="M15.3016 24.0471V34.8048C15.3016 35.5181 15.585 36.2021 16.0893 36.7065C16.5937 37.2109 17.2778 37.4942 17.9911 37.4942H34.1276C34.8409 37.4942 35.525 37.2109 36.0293 36.7065C36.5337 36.2021 36.8171 35.5181 36.8171 34.8048V24.0471H15.3016Z" stroke="#E1E8F4" stroke-width="1.08" stroke-linecap="round" stroke-linejoin="round"/>
<path d="M15.3016 24.047L14.1183 20.1877C14.0145 19.8496 13.9785 19.4943 14.0123 19.1422C14.0461 18.7901 14.149 18.4481 14.3151 18.1358C14.4812 17.8235 14.7073 17.5471 14.9804 17.3223C15.2536 17.0976 15.5683 16.9289 15.9067 16.8259L31.3441 12.1194C32.0252 11.9094 32.762 11.9783 33.3923 12.3112C34.0227 12.644 34.4951 13.2135 34.7058 13.8945L35.8757 17.7538L15.3016 24.0605V24.047Z" stroke="#E1E8F4" stroke-width="1.08" stroke-linecap="round" stroke-linejoin="round"/>
<path d="M18.7978 15.9653L23.343 21.6131" stroke="#E1E8F4" stroke-width="1.08" stroke-linecap="round" stroke-linejoin="round"/>
<path d="M25.8711 13.8003L30.4162 19.4481" stroke="#E1E8F4" stroke-width="1.08" stroke-linecap="round" stroke-linejoin="round"/>
<path d="M20.9243 27.0465H22.4481L23.2187 30.1985H23.2784L25.093 27.0465H26.6168L25.7716 32.1374H24.5735L25.093 29.0103H25.0507L23.3157 32.1051H22.5525L21.8465 28.9929H21.8043L21.2773 32.1374H20.0791L20.9243 27.0465Z" fill="white"/>
<path d="M26.7592 35.7001L27.6044 30.6092H29.7272C30.1084 30.6092 30.4191 30.663 30.6594 30.7707C30.8997 30.8785 31.0687 31.0293 31.1665 31.2232C31.2659 31.417 31.2941 31.6416 31.251 31.8968C31.2162 32.089 31.145 32.2614 31.0372 32.4139C30.9312 32.5647 30.7986 32.6906 30.6395 32.7917C30.4804 32.8911 30.3048 32.9607 30.1125 33.0005L30.1026 33.0502C30.3081 33.0585 30.4895 33.1132 30.647 33.2143C30.8061 33.3154 30.9237 33.4571 31 33.6393C31.0762 33.82 31.0936 34.0321 31.0522 34.2757C31.0074 34.5491 30.8972 34.7936 30.7215 35.009C30.5475 35.2228 30.318 35.3918 30.033 35.5161C29.7479 35.6388 29.4182 35.7001 29.0436 35.7001H26.7592ZM28.1587 34.7082H28.9193C29.1828 34.7082 29.3867 34.6577 29.5308 34.5566C29.6767 34.4539 29.7629 34.313 29.7894 34.134C29.8109 34.0031 29.7993 33.8904 29.7546 33.796C29.7098 33.6998 29.6353 33.6261 29.5308 33.5747C29.4264 33.5217 29.2947 33.4952 29.1356 33.4952H28.3526L28.1587 34.7082ZM28.4893 32.7022H29.1729C29.3055 32.7022 29.4273 32.6798 29.5383 32.6351C29.651 32.5903 29.7438 32.5257 29.8167 32.4412C29.8913 32.3567 29.9377 32.2548 29.9559 32.1354C29.9841 31.9648 29.9451 31.8305 29.8391 31.7327C29.733 31.635 29.5781 31.5861 29.3742 31.5861H28.6732L28.4893 32.7022Z" fill="white"/>
</svg>
